<svg width="560" height="466" viewBox="0 0 560 466" fill="none" xmlns="http://www.w3.org/2000/svg">
<g id="experiencesvg 1" clip-path="url(#clip0_0_1)">
<g id="right-papers">
<g id="r-paper2">
<path id="Vector" d="M248.906 88.4365C248.798 88.4365 248.689 88.4326 248.58 88.4258C241.406 87.9648 216.857 84.4922 202.196 59.1426C201.113 57.2715 201.327 54.8906 202.729 53.2197H202.729C214.973 43.2622 224.537 32.4854 230.182 20.5108C231.201 19.2959 232.731 18.6318 234.28 18.6592C235.869 18.6968 237.334 19.4453 238.299 20.7129C245.26 29.8594 259.002 46.0508 272.829 51.7276C274.383 52.3662 275.508 53.6621 275.916 55.2852C276.321 56.8946 275.946 58.5537 274.889 59.8369L252.896 86.542C251.908 87.7432 250.435 88.4365 248.906 88.4365V88.4365V88.4365Z" fill="#E6E6E6"/>
<path id="Vector_2" d="M206.885 54.5068L207.267 54.8281C206.893 55.2754 206.825 55.9131 207.097 56.417C220.361 80.8398 244.073 82.7559 248.692 82.8916C249.137 82.917 249.554 82.7168 249.836 82.374L271.671 55.8613C271.98 55.4853 272.075 55.0058 271.933 54.543C271.789 54.0781 271.437 53.7314 270.965 53.5947C256.136 49.2607 240.576 29.1865 236.16 23.1367C235.902 22.7832 235.503 22.5713 235.067 22.5566C234.618 22.5522 234.209 22.7285 233.924 23.0683C227.606 35.3871 218.759 46.0002 207.267 54.8281L206.885 54.5068V54.5068Z" fill="white"/>
<path id="Vector_3" d="M218.263 60.5489L238.055 40.3683C239.408 38.9888 237.289 36.8658 235.934 38.247L216.142 58.4276C214.789 59.8071 216.908 61.9302 218.263 60.5489V60.5489Z" fill="#E6E6E6"/>
<path id="Vector_4" d="M230.209 66.2344C235.671 61.3384 240.418 55.6695 244.305 49.4491C245.331 47.8071 242.737 46.2994 241.715 47.9349C237.957 53.9488 233.368 59.3803 228.087 64.1131C226.647 65.4044 228.774 67.5203 230.209 66.2344H230.209H230.209Z" fill="#E6E6E6"/>
<path id="Vector_5" d="M240.975 73.0423C245.949 67.5332 250.182 61.3846 253.515 54.7521C254.38 53.0316 251.793 51.5108 250.925 53.238C247.704 59.6461 243.66 65.597 238.854 70.921C237.563 72.3509 239.678 74.4791 240.975 73.0423Z" fill="#E6E6E6"/>
</g>
<g id="r-paper1">
<path id="Vector_6" d="M266.906 96.4365C266.798 96.4365 266.689 96.4326 266.58 96.4258C259.406 95.9648 234.857 92.4922 220.196 67.1426C219.113 65.2715 219.327 62.8906 220.729 61.2197H220.729C232.361 51.1309 241.119 40.0987 248.182 28.5108C249.201 27.2959 250.731 26.6318 252.28 26.6592C253.869 26.6968 255.334 27.4453 256.299 28.7129C263.26 37.8594 277.002 54.0508 290.829 59.7276C292.383 60.3662 293.508 61.6621 293.916 63.2852C294.321 64.8946 293.946 66.5537 292.889 67.8369L270.896 94.542C269.908 95.7432 268.435 96.4365 266.906 96.4365V96.4365V96.4365Z" fill="#E6E6E6"/>
<path id="Vector_7" d="M224.885 62.5068L225.267 62.8281C224.893 63.2754 224.825 63.9131 225.097 64.417C238.361 88.8398 262.073 90.7559 266.692 90.8916C267.137 90.917 267.554 90.7168 267.836 90.374L289.671 63.8613C289.98 63.4853 290.075 63.0058 289.933 62.543C289.789 62.0781 289.437 61.7314 288.965 61.5947C274.136 57.2607 258.576 37.1865 254.16 31.1367C253.902 30.7832 253.503 30.5713 253.067 30.5566C252.618 30.5522 252.209 30.7285 251.924 31.0683C244.355 43.6446 235.841 54.7927 225.267 62.8281L224.885 62.5068V62.5068Z" fill="white"/>
<path id="Vector_8" d="M236.263 68.5489L256.055 48.3683C257.408 46.9888 255.289 44.8658 253.934 46.247L234.142 66.4276C232.789 67.8071 234.908 69.9302 236.263 68.5489V68.5489Z" fill="#E6E6E6"/>
<path id="Vector_9" d="M248.209 74.2344C253.671 69.3384 258.418 63.6695 262.305 57.4491C263.331 55.8071 260.737 54.2994 259.715 55.9349C255.957 61.9488 251.368 67.3803 246.087 72.1131C244.647 73.4044 246.774 75.5203 248.209 74.2344H248.209H248.209Z" fill="#E6E6E6"/>
<path id="Vector_10" d="M258.975 81.0423C263.949 75.5332 268.182 69.3846 271.515 62.7521C272.38 61.0316 269.793 59.5108 268.925 61.238C265.704 67.6461 261.66 73.597 256.854 78.921C255.563 80.3509 257.678 82.4791 258.975 81.0423Z" fill="#E6E6E6"/>
</g>
</g>
<g id="left-paper">
<path id="Vector_11" d="M463.906 282.437C463.798 282.437 463.689 282.433 463.58 282.426C456.406 281.965 431.857 278.492 417.196 253.143C416.113 251.272 416.327 248.891 417.729 247.22H417.729L445.182 214.511C446.201 213.296 447.731 212.632 449.28 212.659C450.869 212.697 452.91 213.168 453.299 214.713C456.462 227.266 470.083 243.565 487.829 245.728C489.497 245.931 490.508 247.662 490.916 249.285C491.321 250.895 490.946 252.554 489.889 253.837L467.896 280.542C466.908 281.743 465.435 282.437 463.906 282.437V282.437Z" fill="#E6E6E6"/>
<path id="Vector_12" d="M421.885 248.507L422.267 248.828C421.893 249.275 421.825 249.913 422.098 250.417C435.361 274.84 459.073 276.756 463.692 276.892C464.137 276.917 464.554 276.717 464.836 276.374L486.671 249.861C486.98 249.485 487.075 249.006 486.933 248.543C486.789 248.078 486.456 247.618 485.965 247.595C467.089 246.709 451.927 226.296 451.16 217.137C451.124 216.7 450.503 216.571 450.067 216.557C449.618 216.552 449.209 216.729 448.924 217.068L422.267 248.828L421.885 248.507V248.507Z" fill="white"/>
<path id="Vector_13" d="M433.263 254.549L453.055 234.368C454.408 232.989 452.289 230.866 450.934 232.247L431.142 252.428C429.789 253.807 431.908 255.93 433.263 254.549Z" fill="#E6E6E6"/>
<path id="Vector_14" d="M445.209 260.234C450.671 255.338 455.418 249.67 459.305 243.449C460.331 241.807 457.736 240.299 456.715 241.935C452.957 247.949 448.368 253.38 443.087 258.113C441.647 259.404 443.774 261.52 445.209 260.234H445.209V260.234Z" fill="#E6E6E6"/>
<path id="Vector_15" d="M455.975 267.042C460.949 261.533 465.182 255.385 468.515 248.752C469.38 247.032 466.793 245.511 465.925 247.238C462.704 253.646 458.66 259.597 453.854 264.921C452.563 266.351 454.678 268.479 455.975 267.042Z" fill="#E6E6E6"/>
</g>
<path id="Vector_16" d="M381.662 456.789L369.803 456.788L364.162 411.045L381.665 411.046L381.662 456.789Z" fill="#FFB6B6"/>
<path id="Vector_17" d="M341.032 456.52C340.662 457.142 340.467 459.149 340.467 459.872C340.467 462.095 342.269 463.897 344.492 463.897H381.219C382.735 463.897 383.965 462.668 383.965 461.152V459.622C383.965 459.622 385.781 455.027 382.041 449.363C382.041 449.363 377.392 453.798 370.445 446.851L368.397 443.14L353.568 453.985L345.349 454.997C343.551 455.218 341.957 454.962 341.032 456.52H341.032V456.52Z" fill="#2F2E41"/>
<path id="Vector_18" d="M491.172 433.386L481.07 439.599L452.297 403.594L467.206 394.424L491.172 433.386Z" fill="#FFB6B6"/>
<path id="Vector_19" d="M456.424 454.446C456.436 455.169 457.321 456.981 457.7 457.597C458.865 459.49 461.344 460.081 463.238 458.916L494.519 439.673C495.81 438.878 496.213 437.187 495.419 435.895L494.617 434.593C494.617 434.593 493.757 429.727 487.603 426.862C487.603 426.862 485.967 433.076 476.411 430.799L472.721 428.711L465.774 445.718L459.303 450.886C457.888 452.017 456.396 452.635 456.424 454.446L456.424 454.446L456.424 454.446V454.446Z" fill="#2F2E41"/>
<path id="Vector_20" d="M416.634 242.841C416.047 240.281 416.092 237.795 416.642 235.735L409.497 211.708L421.131 208.553L427.127 233.267C428.517 234.869 429.638 237.08 430.225 239.641C431.566 245.491 429.611 250.949 425.858 251.833C422.105 252.717 417.975 248.691 416.634 242.841L416.634 242.841V242.841Z" fill="#FFB6B6"/>
<path id="Vector_21" d="M350.438 82.6792C350.438 82.6792 369.187 74.5183 379.656 86.3114C389.185 97.0455 408.529 129.346 406.543 132.489L425.587 222.473L411.471 226.822L374.026 123.319L350.438 82.6792H350.438V82.6792Z" fill="#6C63FF"/>
<path id="Vector_22" d="M329.789 216.033L339.449 328.736L362.795 433.389L387.751 430.974L375.675 316.661L383.066 215.07L329.789 216.033Z" fill="#2F2E41"/>
<path id="Vector_23" d="M331.786 240.488L391.955 336.274L460.608 418.639L481.691 405.071L418.638 308.958C408.988 266.621 398.301 227.431 378.716 215.249L331.786 240.488L331.786 240.488V240.488Z" fill="#2F2E41"/>
<path id="Vector_24" d="M335.297 240.956C332.475 240.956 329.742 239.962 327.514 238.073C324.524 235.537 322.966 231.84 323.24 227.93L328.489 177.572L326.484 122.581L326.496 122.521L332.728 92.6385C332.789 91.6888 332.989 90.6834 333.31 89.7181L342.514 62.0452C344.169 57.0677 348.805 53.7234 354.051 53.7234H362.19C366.265 53.7234 370.047 55.7474 372.307 59.138L379.432 69.8255C379.906 70.5355 380.305 71.2977 380.619 72.0911L396.349 111.79C396.848 113.05 397.132 114.376 397.193 115.73L402.073 225.905C402.236 229.563 400.764 233.063 398.036 235.509C395.326 237.94 391.708 239.015 388.121 238.462C367.581 235.29 349.605 237.884 338.14 240.619C337.193 240.845 336.24 240.956 335.297 240.956V240.956L335.297 240.956Z" fill="#6C63FF"/>
<path id="Vector_25" d="M355.523 51.2606C368.446 51.2606 378.923 40.784 378.923 27.8604C378.923 14.9368 368.446 4.46021 355.523 4.46021C342.599 4.46021 332.123 14.9368 332.123 27.8604C332.123 40.784 342.599 51.2606 355.523 51.2606Z" fill="#FFB6B6"/>
<path id="Vector_26" d="M374.054 45.5501C371.943 46.3383 368.707 47.5637 366.596 48.3518C364.627 44.4275 367.039 42.3911 367.289 38.0078C367.373 36.545 367.584 35.0807 367.463 33.6205C367.342 32.1603 366.84 30.6615 365.739 29.6953C364.054 28.2174 361.247 28.4577 359.616 29.9949C357.985 31.532 357.52 34.0719 358.187 36.2117C351.771 33.4382 347.626 26.1618 348.512 19.2283C346.596 18.4772 344.632 17.716 342.574 17.6585C340.517 17.601 338.313 18.3861 337.216 20.1279C336.448 21.3493 336.294 22.8997 335.432 24.0566C334.03 25.9364 331 26.082 329.139 24.6561C327.277 23.2302 326.565 20.6389 326.962 18.3278C327.359 16.0168 324.47 11.3005 326.087 9.60241C327.191 8.444 332.666 10.0854 333.897 9.0635C335.019 8.1312 336.146 7.19581 337.384 6.42237C338.955 5.44061 340.695 4.72964 342.504 4.33014C344.215 3.95225 345.973 3.85299 347.723 3.75494C349.499 3.65539 351.956 0.118629 353.733 0.0190786C358.962 -0.274001 363.636 2.88385 368.653 4.38728C373.67 5.89071 376.827 10.208 379.604 14.6489C383.56 20.9746 382.216 27.9058 379.491 33.9543C378.818 35.4495 381.078 37.0206 380.743 38.6258C380.432 40.1179 379.034 41.1986 378.707 42.6874C378.428 43.9604 376.776 42.4855 376.382 43.7278C376.041 44.7998 375.039 45.5567 373.968 45.8989C372.896 46.241 371.749 46.2341 370.625 46.2239" fill="#2F2E41"/>
<g id="plant">
<path id="Vector_27" d="M505.027 448.046C507.093 448.175 508.235 445.608 506.672 444.112L506.516 443.494C506.537 443.445 506.557 443.395 506.578 443.346C508.667 438.364 515.748 438.398 517.819 443.387C519.658 447.816 521.999 452.251 522.575 456.933C522.833 459 522.717 461.106 522.259 463.134C526.567 453.723 528.834 443.447 528.834 433.113C528.834 430.517 528.692 427.92 528.401 425.33C528.162 423.212 527.833 421.106 527.406 419.02C525.1 407.743 520.108 397.002 512.906 388.03C509.444 386.138 506.557 383.18 504.813 379.634C504.187 378.355 503.696 376.979 503.463 375.577C503.857 375.629 504.949 369.629 504.652 369.261C505.201 368.428 506.183 368.013 506.783 367.2C509.765 363.157 513.874 363.863 516.019 369.358C520.602 371.67 520.646 375.506 517.834 379.194C516.045 381.541 515.8 384.717 514.23 387.229C514.392 387.436 514.56 387.636 514.721 387.843C517.682 391.641 520.243 395.723 522.402 400.011C521.792 395.245 522.693 389.503 524.229 385.802C525.977 381.585 529.253 378.033 532.139 374.387C535.605 370.008 542.712 371.919 543.323 377.47C543.329 377.524 543.335 377.578 543.34 377.631C542.912 377.873 542.492 378.13 542.082 378.401C539.742 379.949 540.551 383.575 543.323 384.003L543.386 384.013C543.231 385.556 542.966 387.087 542.578 388.592C546.28 402.908 538.288 408.122 526.877 408.356C526.625 408.485 526.379 408.615 526.127 408.737C527.284 411.993 528.207 415.332 528.892 418.716C529.505 421.707 529.932 424.729 530.171 427.765C530.468 431.595 530.442 435.445 530.119 439.268L530.138 439.133C530.959 434.922 533.245 430.988 536.565 428.262C541.511 424.2 548.498 422.704 553.833 419.438C556.402 417.866 559.693 419.898 559.244 422.875L559.223 423.018C558.428 423.341 557.653 423.715 556.904 424.135C556.475 424.377 556.055 424.634 555.645 424.905C553.306 426.452 554.114 430.079 556.886 430.507L556.949 430.517C556.994 430.523 557.033 430.53 557.078 430.536C555.715 433.772 553.817 436.775 551.44 439.365C549.125 451.862 539.184 453.048 528.549 449.409H528.543C527.38 454.473 525.682 459.42 523.499 464.135H505.478C505.414 463.935 505.356 463.728 505.298 463.528C506.964 463.631 508.643 463.534 510.284 463.231C508.947 461.59 507.61 459.937 506.273 458.296C506.241 458.264 506.215 458.232 506.189 458.199C505.511 457.36 504.826 456.526 504.148 455.687L504.148 455.686C504.105 453.108 504.414 450.539 505.026 448.046L505.027 448.046L505.027 448.046V448.046Z" fill="#F2F2F2"/>
</g>
<path id="Vector_28" d="M193.476 464.189C193.476 464.849 194.006 465.379 194.666 465.379H557.956C558.616 465.379 559.146 464.849 559.146 464.189C559.146 463.529 558.616 462.999 557.956 462.999H194.666C194.006 462.999 193.476 463.529 193.476 464.189Z" fill="#CCCCCC"/>
<path id="Vector_29" d="M251.018 81.472C253.129 82.8646 254.749 84.6183 255.735 86.4075L276.676 98.4039L270.676 108.202L250.08 94.9774C248.047 94.7747 245.797 93.9742 243.687 92.5816C238.866 89.4002 236.599 84.3343 238.624 81.2664C240.648 78.1986 246.198 78.2906 251.018 81.472H251.018L251.018 81.472Z" fill="#FFB6B6"/>
<path id="Vector_30" d="M349.545 68.8259C362.899 60.6361 376.319 79.3911 364.445 89.6097L364.405 89.6445L316.962 134.266L260.185 106.228L265.799 91.09L309.787 108.515L342.785 74.2594C345.082 71.9596 347.342 70.1771 349.545 68.8259H349.545V68.8259Z" fill="#6C63FF"/>
</g>
<defs>
<clipPath id="clip0_0_1">
<rect width="559.286" height="465.379" fill="white"/>
</clipPath>
</defs>
</svg>
